<svg width="16" height="16" viewBox="0 0 16 16" fill="none" xmlns="http://www.w3.org/2000/svg">
    <path fill-rule="evenodd" clip-rule="evenodd" d="M8.00008 5.33334C8.73341 5.33334 9.33341 4.73334 9.33341 4.00001C9.33341 3.26667 8.73341 2.66667 8.00008 2.66667C7.26675 2.66667 6.66675 3.26667 6.66675 4.00001C6.66675 4.73334 7.26675 5.33334 8.00008 5.33334ZM8.00008 6.66667C7.26675 6.66667 6.66675 7.26667 6.66675 8C6.66675 8.73334 7.26675 9.33334 8.00008 9.33334C8.73341 9.33334 9.33341 8.73334 9.33341 8C9.33341 7.26667 8.73341 6.66667 8.00008 6.66667ZM6.66675 12C6.66675 11.2667 7.26675 10.6667 8.00008 10.6667C8.73341 10.6667 9.33341 11.2667 9.33341 12C9.33341 12.7333 8.73341 13.3333 8.00008 13.3333C7.26675 13.3333 6.66675 12.7333 6.66675 12Z" fill="#001141"/>
</svg>
