<svg width="129" height="32" viewBox="0 0 129 32" fill="none" xmlns="http://www.w3.org/2000/svg">
<path d="M120.1 20.2903L120.092 16.852H120.549L124.892 11.9975H128.22L122.878 17.9457H122.288L120.1 20.2903ZM117.504 24.0827V7.96918H120.352V24.0827H117.504ZM125.089 24.0827L121.155 18.583L123.074 16.5767L128.495 24.0827H125.089Z" fill="#001141"/>
<path d="M115.339 15.1919L112.742 15.4752C112.669 15.2129 112.54 14.9664 112.357 14.7356C112.179 14.5048 111.937 14.3186 111.633 14.177C111.329 14.0353 110.956 13.9645 110.516 13.9645C109.923 13.9645 109.425 14.093 109.021 14.35C108.622 14.6071 108.426 14.9401 108.431 15.3493C108.426 15.7007 108.554 15.9866 108.816 16.2069C109.084 16.4272 109.524 16.6081 110.138 16.7498L112.199 17.1904C113.343 17.4369 114.193 17.8277 114.749 18.3627C115.31 18.8977 115.593 19.5979 115.598 20.4634C115.593 21.224 115.37 21.8954 114.93 22.4776C114.494 23.0546 113.888 23.5057 113.112 23.8309C112.336 24.1561 111.444 24.3187 110.437 24.3187C108.958 24.3187 107.767 24.0092 106.865 23.3903C105.963 22.7661 105.425 21.898 105.252 20.786L108.029 20.5185C108.155 21.064 108.423 21.4757 108.832 21.7537C109.241 22.0317 109.774 22.1707 110.429 22.1707C111.106 22.1707 111.649 22.0317 112.058 21.7537C112.472 21.4757 112.679 21.1322 112.679 20.7231C112.679 20.3769 112.546 20.091 112.278 19.8654C112.016 19.6399 111.607 19.4668 111.051 19.3462L108.989 18.9134C107.83 18.6722 106.973 18.2656 106.417 17.6939C105.861 17.1169 105.585 16.3878 105.59 15.5066C105.585 14.7618 105.787 14.1166 106.196 13.5711C106.611 13.0204 107.185 12.5955 107.919 12.2965C108.659 11.9923 109.511 11.8402 110.476 11.8402C111.893 11.8402 113.007 12.1418 113.82 12.745C114.639 13.3482 115.145 14.1638 115.339 15.1919Z" fill="#001141"/>
<path d="M96.9855 24.3266C96.2197 24.3266 95.53 24.1902 94.9163 23.9174C94.3078 23.6394 93.8252 23.2303 93.4686 22.69C93.1171 22.1498 92.9414 21.4836 92.9414 20.6916C92.9414 20.0097 93.0673 19.4458 93.3191 19C93.5708 18.5541 93.9144 18.1975 94.3498 17.9299C94.7851 17.6624 95.2756 17.4605 95.8211 17.3241C96.3718 17.1825 96.9409 17.0802 97.5284 17.0173C98.2365 16.9438 98.8109 16.8783 99.2515 16.8206C99.6921 16.7576 100.012 16.6632 100.211 16.5373C100.416 16.4062 100.518 16.2043 100.518 15.9315V15.8843C100.518 15.2916 100.342 14.8326 99.9911 14.5074C99.6396 14.1822 99.1335 14.0196 98.4725 14.0196C97.7749 14.0196 97.2216 14.1717 96.8124 14.4759C96.4085 14.7802 96.1358 15.1395 95.9942 15.5538L93.3348 15.1762C93.5446 14.4418 93.8908 13.8281 94.3734 13.3351C94.8559 12.8368 95.446 12.4644 96.1437 12.2178C96.8413 11.9661 97.6123 11.8402 98.4568 11.8402C99.039 11.8402 99.6186 11.9084 100.196 12.0448C100.773 12.1811 101.3 12.4067 101.777 12.7214C102.254 13.0309 102.637 13.4531 102.926 13.9881C103.22 14.5231 103.366 15.1919 103.366 15.9944V24.0826H100.628V22.4225H100.534C100.361 22.7582 100.117 23.0729 99.8022 23.3667C99.4928 23.6552 99.102 23.8886 98.6299 24.0669C98.1631 24.24 97.6149 24.3266 96.9855 24.3266ZM97.7251 22.2337C98.2968 22.2337 98.7925 22.1209 99.2121 21.8954C99.6318 21.6646 99.9543 21.3604 100.18 20.9827C100.411 20.605 100.526 20.1933 100.526 19.7474V18.3233C100.437 18.3968 100.285 18.465 100.07 18.5279C99.8599 18.5908 99.6239 18.6459 99.3616 18.6931C99.0994 18.7403 98.8397 18.7823 98.5827 18.819C98.3257 18.8557 98.1028 18.8872 97.9139 18.9134C97.4891 18.9711 97.1088 19.0655 96.7731 19.1967C96.4374 19.3278 96.1725 19.5114 95.9784 19.7474C95.7844 19.9782 95.6873 20.2772 95.6873 20.6444C95.6873 21.1689 95.8788 21.5649 96.2617 21.8324C96.6446 22.0999 97.1324 22.2337 97.7251 22.2337Z" fill="#001141"/>
<path d="M91.569 11.9975V14.2005H84.6216V11.9975H91.569ZM86.3368 9.10214H89.185V20.4477C89.185 20.8306 89.2427 21.1243 89.3581 21.3289C89.4787 21.5282 89.6361 21.6646 89.8302 21.738C90.0242 21.8114 90.2393 21.8481 90.4753 21.8481C90.6537 21.8481 90.8163 21.835 90.9632 21.8088C91.1153 21.7826 91.2307 21.759 91.3093 21.738L91.7893 23.9646C91.6372 24.0171 91.4195 24.0748 91.1362 24.1377C90.8582 24.2007 90.5173 24.2374 90.1134 24.2479C89.4001 24.2688 88.7575 24.1613 88.1858 23.9253C87.614 23.684 87.1603 23.3116 86.8246 22.808C86.4942 22.3045 86.3316 21.6751 86.3368 20.9197V9.10214Z" fill="#001141"/>
<path d="M75.3243 17.0015V24.0826H72.4761V11.9975H75.1984V14.0511H75.34C75.618 13.3744 76.0613 12.8368 76.6697 12.4381C77.2834 12.0395 78.0413 11.8402 78.9435 11.8402C79.7775 11.8402 80.504 12.0185 81.1229 12.3752C81.7471 12.7319 82.2297 13.2485 82.5706 13.9252C82.9168 14.6018 83.0873 15.4227 83.082 16.3878V24.0826H80.2339V16.8284C80.2339 16.0207 80.0241 15.3886 79.6044 14.9323C79.1901 14.4759 78.6157 14.2478 77.8814 14.2478C77.3831 14.2478 76.9398 14.3579 76.5517 14.5782C76.1688 14.7933 75.8672 15.1054 75.6469 15.5145C75.4318 15.9236 75.3243 16.4193 75.3243 17.0015Z" fill="#001141"/>
<path d="M65.1359 24.3187C63.9243 24.3187 62.8778 24.0669 61.9966 23.5634C61.1207 23.0546 60.4466 22.336 59.9746 21.4076C59.5025 20.4739 59.2665 19.375 59.2665 18.1109C59.2665 16.8678 59.5025 15.7768 59.9746 14.8379C60.4519 13.8937 61.118 13.1594 61.973 12.6348C62.828 12.1051 63.8325 11.8402 64.9864 11.8402C65.7313 11.8402 66.4341 11.9608 67.095 12.2021C67.7612 12.4381 68.3487 12.8053 68.8574 13.3036C69.3715 13.8019 69.7754 14.4366 70.0691 15.2076C70.3628 15.9735 70.5097 16.8861 70.5097 17.9457V18.819H60.604V16.8993H67.7795C67.7743 16.3537 67.6563 15.8686 67.4255 15.4437C67.1947 15.0136 66.8721 14.6753 66.4577 14.4287C66.0486 14.1822 65.5713 14.0589 65.0258 14.0589C64.4435 14.0589 63.9321 14.2006 63.4915 14.4838C63.0509 14.7618 62.7074 15.129 62.4608 15.5853C62.2196 16.0364 62.0963 16.5321 62.091 17.0723V18.7482C62.091 19.4511 62.2196 20.0543 62.4766 20.5578C62.7336 21.0561 63.0929 21.439 63.5545 21.7065C64.0161 21.9688 64.5563 22.0999 65.1753 22.0999C65.5896 22.0999 65.9647 22.0422 66.3004 21.9268C66.6361 21.8062 66.9272 21.6305 67.1737 21.3997C67.4202 21.1689 67.6064 20.883 67.7323 20.5421L70.3917 20.8411C70.2238 21.5439 69.9039 22.1576 69.4318 22.6822C68.965 23.2014 68.367 23.6053 67.6379 23.8938C66.9088 24.1771 66.0748 24.3187 65.1359 24.3187Z" fill="#001141"/>
<path d="M45.6024 24.0827V22.2652L53.8637 10.4161H45.5552V7.96918H57.4829V9.78666L49.2295 21.6357H57.5301V24.0827H45.6024Z" fill="#001141"/>
<path fill-rule="evenodd" clip-rule="evenodd" d="M9.23752 10.6665C8.32878 9.09729 7.80859 7.27562 7.80859 5.33342C7.80859 3.3911 8.32901 1.56932 9.23752 8.42989e-06C11.0509 -0.0022719 12.8888 0.458037 14.571 1.42921C16.253 2.40031 17.5704 3.76164 18.4751 5.33312L18.4749 5.33342H18.4753C20.3129 8.52519 20.4475 12.5837 18.4751 16C14.5304 16 11.083 13.8539 9.23752 10.6667V10.6665Z" fill="#0F62FE" fill-opacity="0.4"/>
<path fill-rule="evenodd" clip-rule="evenodd" d="M18.4751 16C16.5027 12.5837 16.6375 8.52519 18.4749 5.33342H18.4753L18.4751 5.33312C19.38 3.76164 20.6974 2.40031 22.3794 1.42921C24.0614 0.458037 25.8993 -0.0022719 27.7127 8.42989e-06C28.6214 1.56932 29.1416 3.3911 29.1416 5.33342C29.1416 7.27562 28.6214 9.09729 27.7129 10.6665H27.7127L27.7129 10.6667C25.8674 13.8539 22.4198 16 18.4751 16Z" fill="#0F62FE" fill-opacity="0.3"/>
<path fill-rule="evenodd" clip-rule="evenodd" d="M9.23749 21.3332C7.42406 21.3355 5.58637 20.8751 3.90439 19.9041C2.22228 18.933 0.904725 17.5716 0 16C0.904725 14.4283 2.22228 13.0669 3.90439 12.0957C5.58637 11.1246 7.42406 10.6643 9.23749 10.6665C12.9206 10.6711 16.5027 12.5837 18.4751 16C16.5027 19.4162 12.9206 21.3287 9.23749 21.3332Z" fill="#0F62FE" fill-opacity="0.5"/>
<path fill-rule="evenodd" clip-rule="evenodd" d="M18.4751 16C20.4475 12.5837 24.0298 10.6711 27.7127 10.6665L27.7129 10.6667V10.6665C29.5261 10.6643 31.3639 11.1246 33.0459 12.0957C34.7279 13.0669 36.0456 14.4283 36.9502 16C36.0456 17.5716 34.7279 18.933 33.0459 19.9041C31.3639 20.8751 29.5261 21.3355 27.7129 21.3332H27.7127C24.0298 21.3287 20.4475 19.4162 18.4751 16Z" fill="#0F62FE" fill-opacity="0.8"/>
<path fill-rule="evenodd" clip-rule="evenodd" d="M18.4749 26.6665L18.4751 26.6667C17.5704 28.2381 16.253 29.5995 14.571 30.5706C12.8888 31.5419 11.0509 32.0022 9.23752 32C8.32901 30.4306 7.80859 28.6088 7.80859 26.6665C7.80859 24.7242 8.32878 22.9026 9.23752 21.3333C11.083 18.146 14.5304 16 18.4751 16C20.4475 19.4162 20.3129 23.4747 18.4753 26.6665H18.4749Z" fill="#0F62FE" fill-opacity="0.6"/>
<path fill-rule="evenodd" clip-rule="evenodd" d="M18.4753 26.6665H18.4749C16.6375 23.4747 16.5027 19.4162 18.4751 16C22.4198 16 25.8674 18.146 27.7129 21.3333C28.6214 22.9026 29.1416 24.7242 29.1416 26.6665C29.1416 28.6088 28.6214 30.4306 27.7127 32C25.8993 32.0022 24.0614 31.5419 22.3794 30.5706C20.6974 29.5995 19.38 28.2381 18.4751 26.6667L18.4753 26.6665Z" fill="#0F62FE" fill-opacity="0.7"/>
</svg>
