<svg width="37" height="32" viewBox="0 0 37 32" fill="none" xmlns="http://www.w3.org/2000/svg">
<path fill-rule="evenodd" clip-rule="evenodd" d="M9.23752 10.6665C8.32878 9.09729 7.80859 7.27562 7.80859 5.33342C7.80859 3.3911 8.32901 1.56932 9.23752 8.42989e-06C11.0509 -0.0022719 12.8888 0.458037 14.571 1.42921C16.253 2.40031 17.5704 3.76164 18.4751 5.33312L18.4749 5.33342H18.4753C20.3129 8.52519 20.4475 12.5837 18.4751 16C14.5304 16 11.083 13.8539 9.23752 10.6667V10.6665Z" fill="#0F62FE" fill-opacity="0.4"/>
<path fill-rule="evenodd" clip-rule="evenodd" d="M18.4751 16C16.5027 12.5837 16.6375 8.52519 18.4749 5.33342H18.4753L18.4751 5.33312C19.38 3.76164 20.6974 2.40031 22.3794 1.42921C24.0614 0.458037 25.8993 -0.0022719 27.7127 8.42989e-06C28.6214 1.56932 29.1416 3.3911 29.1416 5.33342C29.1416 7.27562 28.6214 9.09729 27.7129 10.6665H27.7127L27.7129 10.6667C25.8674 13.8539 22.4198 16 18.4751 16Z" fill="#0F62FE" fill-opacity="0.3"/>
<path fill-rule="evenodd" clip-rule="evenodd" d="M9.23749 21.3332C7.42406 21.3355 5.58637 20.8751 3.90439 19.9041C2.22228 18.933 0.904725 17.5716 0 16C0.904725 14.4283 2.22228 13.0669 3.90439 12.0957C5.58637 11.1246 7.42406 10.6643 9.23749 10.6665C12.9206 10.6711 16.5027 12.5837 18.4751 16C16.5027 19.4162 12.9206 21.3287 9.23749 21.3332Z" fill="#0F62FE" fill-opacity="0.5"/>
<path fill-rule="evenodd" clip-rule="evenodd" d="M18.4751 16C20.4475 12.5837 24.0298 10.6711 27.7127 10.6665L27.7129 10.6667V10.6665C29.5261 10.6643 31.3639 11.1246 33.0459 12.0957C34.7279 13.0669 36.0456 14.4283 36.9502 16C36.0456 17.5716 34.7279 18.933 33.0459 19.9041C31.3639 20.8751 29.5261 21.3355 27.7129 21.3332H27.7127C24.0298 21.3287 20.4475 19.4162 18.4751 16Z" fill="#0F62FE" fill-opacity="0.8"/>
<path fill-rule="evenodd" clip-rule="evenodd" d="M18.4749 26.6665L18.4751 26.6667C17.5704 28.2381 16.253 29.5995 14.571 30.5706C12.8888 31.5419 11.0509 32.0022 9.23752 32C8.32901 30.4306 7.80859 28.6088 7.80859 26.6665C7.80859 24.7242 8.32878 22.9026 9.23752 21.3333C11.083 18.146 14.5304 16 18.4751 16C20.4475 19.4162 20.3129 23.4747 18.4753 26.6665H18.4749Z" fill="#0F62FE" fill-opacity="0.6"/>
<path fill-rule="evenodd" clip-rule="evenodd" d="M18.4753 26.6665H18.4749C16.6375 23.4747 16.5027 19.4162 18.4751 16C22.4198 16 25.8674 18.146 27.7129 21.3333C28.6214 22.9026 29.1416 24.7242 29.1416 26.6665C29.1416 28.6088 28.6214 30.4306 27.7127 32C25.8993 32.0022 24.0614 31.5419 22.3794 30.5706C20.6974 29.5995 19.38 28.2381 18.4751 26.6667L18.4753 26.6665Z" fill="#0F62FE" fill-opacity="0.7"/>
</svg>
