<svg xmlns="http://www.w3.org/2000/svg" width="77" height="67" viewBox="0 0 77 67" fill="none">
    <path fill-rule="evenodd" clip-rule="evenodd" d="M19.1786 22.1457C17.2919 18.8876 16.2119 15.1055 16.2119 11.0732C16.2119 7.04055 17.2924 3.25821 19.1786 1.7502e-05C22.9436 -0.00471687 26.7593 0.950969 30.2519 2.9673C33.7441 4.98349 36.4793 7.80986 38.3575 11.0725L38.3571 11.0732H38.358C42.1732 17.6999 42.4525 26.1262 38.3575 33.219C30.1675 33.219 23.0102 28.7633 19.1786 22.146V22.1457Z" fill="#0F62FE" fill-opacity="0.4"/>
    <path fill-rule="evenodd" clip-rule="evenodd" d="M38.3577 33.219C34.2627 26.1262 34.5425 17.6999 38.3572 11.0732H38.3581L38.3577 11.0725C40.2364 7.80986 42.9716 4.98349 46.4638 2.9673C49.956 0.950969 53.7716 -0.00471687 57.5366 1.7502e-05C59.4233 3.25821 60.5033 7.04055 60.5033 11.0732C60.5033 15.1055 59.4233 18.8876 57.537 22.1457H57.5366L57.537 22.146C53.7055 28.7633 46.5477 33.219 38.3577 33.219Z" fill="#0F62FE" fill-opacity="0.3"/>
    <path fill-rule="evenodd" clip-rule="evenodd" d="M19.1787 44.2918C15.4137 44.2965 11.5983 43.3407 8.10624 41.3246C4.61386 39.3085 1.87838 36.4819 0 33.219C1.87838 29.9559 4.61386 27.1293 8.10624 25.113C11.5983 23.0968 15.4137 22.1411 19.1787 22.1457C26.8254 22.1552 34.2626 26.1261 38.3576 33.219C34.2626 40.3116 26.8254 44.2824 19.1787 44.2918Z" fill="#0F62FE" fill-opacity="0.5"/>
    <path fill-rule="evenodd" clip-rule="evenodd" d="M38.3577 33.219C42.4527 26.1261 49.8903 22.1552 57.5366 22.1457L57.537 22.146V22.1457C61.3016 22.1411 65.1172 23.0968 68.6094 25.113C72.1016 27.1293 74.8372 29.9559 76.7155 33.219C74.8372 36.4819 72.1016 39.3085 68.6094 41.3246C65.1172 43.3407 61.3016 44.2965 57.537 44.2918H57.5366C49.8903 44.2824 42.4527 40.3116 38.3577 33.219Z" fill="#0F62FE" fill-opacity="0.8"/>
    <path fill-rule="evenodd" clip-rule="evenodd" d="M38.3571 55.3646L38.3575 55.3651C36.4793 58.6276 33.7441 61.4541 30.2519 63.4702C26.7593 65.4868 22.9436 66.4426 19.1786 66.4379C17.2924 63.1796 16.2119 59.3972 16.2119 55.3646C16.2119 51.3319 17.2919 47.5501 19.1786 44.2918C23.0102 37.6744 30.1675 33.219 38.3575 33.219C42.4525 40.3116 42.1732 48.7379 38.358 55.3646H38.3571Z" fill="#0F62FE" fill-opacity="0.6"/>
    <path fill-rule="evenodd" clip-rule="evenodd" d="M38.3581 55.3646H38.3572C34.5425 48.7379 34.2627 40.3116 38.3577 33.219C46.5477 33.219 53.7055 37.6744 57.537 44.2918C59.4233 47.5501 60.5033 51.3319 60.5033 55.3646C60.5033 59.3972 59.4233 63.1796 57.5366 66.4379C53.7716 66.4426 49.956 65.4868 46.4638 63.4702C42.9716 61.4541 40.2364 58.6276 38.3577 55.3651L38.3581 55.3646Z" fill="#0F62FE" fill-opacity="0.7"/>
</svg>